HIERARCHY
ROOT Hips
{
  OFFSET 265.287 66.7526 -254.649
  CHANNELS 6 Xposition Yposition Zposition Zrotation Xrotation Yrotation
  JOINT LeftUpLeg
  {
    OFFSET 8.64259 1.95398 -2.38835
    CHANNELS 3 Zrotation Xrotation Yrotation
    JOINT LeftLeg
    {
      OFFSET 43.7702 0 0
      CHANNELS 3 Zrotation Xrotation Yrotation
      JOINT LeftFoot
      {
        OFFSET 40.6238 0 0
        CHANNELS 3 Zrotation Xrotation Yrotation
        JOINT LeftToeBase
        {
          OFFSET 12.7242 0 0
          CHANNELS 3 Zrotation Xrotation Yrotation
          End Site
          {
            OFFSET 0 0 0
          }
        }
      }
    }
  }
  JOINT RightUpLeg
  {
    OFFSET -8.2249 1.95398 -2.59336
    CHANNELS 3 Zrotation Xrotation Yrotation
    JOINT RightLeg
    {
      OFFSET 43.5653 0 0
      CHANNELS 3 Zrotation Xrotation Yrotation
      JOINT RightFoot
      {
        OFFSET 40.6238 0 0
        CHANNELS 3 Zrotation Xrotation Yrotation
        JOINT RightToeBase
        {
          OFFSET 12.7242 0 0
          CHANNELS 3 Zrotation Xrotation Yrotation
          End Site
          {
            OFFSET 0 0 0
          }
        }
      }
    }
  }
  JOINT Spine
  {
    OFFSET 0.165834 0.87714 6.61349
    CHANNELS 3 Zrotation Xrotation Yrotation
    JOINT Spine1
    {
      OFFSET 7.38963 1.71661e-005 0
      CHANNELS 3 Zrotation Xrotation Yrotation
      JOINT Spine2
      {
        OFFSET 11.9445 1.14441e-005 0
        CHANNELS 3 Zrotation Xrotation Yrotation
        JOINT Spine3
        {
          OFFSET 14.7254 4.19617e-005 0
          CHANNELS 3 Zrotation Xrotation Yrotation
          JOINT Spine4
          {
            OFFSET 10.9679 0 0
            CHANNELS 3 Zrotation Xrotation Yrotation
            JOINT RightShoulder
            {
              OFFSET 2.46616 -1.6653 3.69651
              CHANNELS 3 Zrotation Xrotation Yrotation
              JOINT RightArm
              {
                OFFSET 13.0012 0 0
                CHANNELS 3 Zrotation Xrotation Yrotation
                JOINT RightForeArm
                {
                  OFFSET 28.7848 1.52588e-005 0
                  CHANNELS 3 Zrotation Xrotation Yrotation
                  JOINT RightHand
                  {
                    OFFSET 26.5688 1.52588e-005 0
                    CHANNELS 3 Zrotation Xrotation Yrotation
                    End Site
                    {
                      OFFSET 0 0 0
                    }
                  }
                }
              }
            }
            JOINT LeftShoulder
            {
              OFFSET 2.38034 -1.29275 -3.7523
              CHANNELS 3 Zrotation Xrotation Yrotation
              JOINT LeftArm
              {
                OFFSET 16.3182 6.10351e-005 0
                CHANNELS 3 Zrotation Xrotation Yrotation
                JOINT LeftForeArm
                {
                  OFFSET 27.0901 0 0
                  CHANNELS 3 Zrotation Xrotation Yrotation
                  JOINT LeftHand
                  {
                    OFFSET 24.5451 1.52588e-005 0
                    CHANNELS 3 Zrotation Xrotation Yrotation
                    End Site
                    {
                      OFFSET 0 0 0
                    }
                  }
                }
              }
            }
            JOINT Neck
            {
              OFFSET 5.0226 -0.0266342 0
              CHANNELS 3 Zrotation Xrotation Yrotation
              JOINT Head
              {
                OFFSET 6.69364 2.86102e-005 0
                CHANNELS 3 Zrotation Xrotation Yrotation
                End Site
                {
                  OFFSET 0 0 0
                }
              }
            }
          }
        }
      }
    }
  }
}
MOTION
Frames:	9
Frame Time:	0.0416667
-126.053 96.9578 -18.4832 110.693 -85.5161 111.424 -178.18 3.06248 86.071 -16.0071 22.3998 3.62547 62.0127 4.48657 17.6193 32.9398 -0.944941 -4.59718 174.748 6.13197 87.3051 -21.3461 -0.469845 -0.271269 59.3552 3.76767 12.4131 37.8995 -1.29493 -0.711168 -0.245995 7.32001 -90.5719 12.2293 -0.759858 -1.05655 0.558135 -0.805614 -1.02209 -21.9742 -0.407225 -1.23604 -1.96157 -0.407218 -1.23604 102.439 -55.1658 -81.7685 20.7386 1.46381 -5.19305 -1.97189 -12.0303 -15.8932 -14.7564 -0.960982 2.42772 -85.764 -45.6032 84.2123 -30.0796 15.6851 -14.9087 4.07517 26.5567 -9.73705 3.18104 -0.081903 -4.21404 3.97281 0.465877 -13.8126 -7.65241 2.40382 12.6421 
-126.839 97.214 -18.4295 106.964 -84.6281 107.458 -177.517 2.29094 86.5981 -14.2524 23.6919 3.49563 61.3692 3.75788 16.3029 32.2843 -0.741932 -4.23449 174.852 4.69998 87.5738 -19.0583 2.26438 -0.248478 59.8785 4.07223 14.2141 34.7003 -0.809162 -0.784281 -0.347554 7.18704 -90.4266 12.4965 -0.893498 -0.748986 0.825627 -0.925597 -0.708933 -21.7092 -0.627107 -0.982884 -1.69653 -0.627101 -0.982881 103 -55.1641 -80.9472 23.392 2.02887 -4.30178 -2.48432 -11.2407 -16.737 -14.7902 -0.937343 2.22016 -84.8542 -45.0614 85.5851 -29.5556 16.4108 -16.8495 2.69009 27.3495 -7.6001 4.67781 -0.0850319 -4.28076 1.25228 0.747527 -12.637 -6.60577 2.32046 11.788 
-127.408 97.3036 -18.2885 100.212 -85.541 100.522 -177.233 2.02386 86.7616 -12.2269 22.9296 3.40181 60.9412 3.32655 15.4649 32.0066 -0.636917 -4.3199 175.242 4.47679 87.7956 -17.264 3.08247 -0.495647 60.3178 4.25499 15.7709 32.5158 -0.449417 -1.14303 -0.223531 6.94614 -90.3278 12.9797 -0.60106 -0.581955 1.30874 -0.626082 -0.554947 -21.2259 -0.398371 -0.735689 -1.21329 -0.398371 -0.735689 102.962 -55.0239 -81.0016 25.2882 2.63802 -2.37388 -3.05311 -10.9855 -18.0886 -15.0865 -0.936609 2.0636 -84.6945 -45.4162 85.888 -29.4457 15.4264 -16.9594 3.23121 28.0573 -7.621 3.94866 -0.0889178 -4.33844 0.685658 0.768959 -9.67047 -8.60004 1.76574 8.94093 
-127.892 97.4061 -18.1484 101.758 -86.564 101.778 -176.506 0.953763 87.0565 -10.0122 22.1328 2.89242 60.8617 3.05535 14.1896 30.8646 -0.240526 -4.26625 175.686 3.88476 87.9861 -15.899 2.33552 -0.951516 60.3171 4.34637 15.5379 31.1665 -0.239483 -1.1453 -0.122952 6.82414 -90.2305 13.2252 -0.355111 -0.417397 1.55424 -0.373144 -0.401367 -20.9806 -0.213253 -0.504824 -0.967924 -0.213259 -0.50483 102.658 -55.1029 -81.4471 26.1418 2.41279 -1.43965 -3.20952 -11.9613 -18.3115 -15.1863 -0.908997 1.80964 -84.044 -46.1022 87.0114 -28.6915 15.4577 -16.5841 3.90279 26.9899 -9.11657 4.65877 -0.0807621 -4.22252 0.321518 1.23207 -9.17622 -9.20748 2.05023 9.51373 
-128.382 97.4006 -18.0618 97.8892 -87.3151 97.7885 -175.707 0.682288 87.5391 -8.7736 21.8721 2.37576 60.7045 2.76973 13.599 30.8212 -0.189198 -4.63564 176.02 3.77759 88.2796 -15.0422 1.71393 -1.16218 60.3785 4.42329 15.156 30.8566 -0.231592 -0.720146 -0.0600445 6.72117 -90.183 13.4311 -0.207646 -0.3398 1.76008 -0.222399 -0.330339 -20.7748 -0.095927 -0.386494 -0.762104 -0.095928 -0.386505 102.509 -54.9232 -81.6654 26.6699 1.78323 -1.70608 -2.83006 -12.749 -17.2747 -15.2807 -0.94591 2.04293 -83.9436 -46.7784 87.2498 -28.5654 14.9566 -16.0273 4.16624 24.8428 -9.76274 6.43145 -0.0955037 -4.41848 -0.620809 1.23373 -9.84852 -7.41365 2.14405 11.7238 
-128.824 97.4129 -18.1784 95.3018 -88.0592 95.2765 -175.27 0.953317 87.9274 -8.70764 21.6442 2.18096 60.3134 2.50741 13.6425 31.5536 -0.435061 -4.79387 175.989 3.89093 88.5025 -14.7276 1.20208 -0.945643 60.8983 4.07631 14.862 29.5509 -0.0877139 -0.225216 -0.0209208 6.62517 -90.1588 13.6233 -0.118533 -0.30272 1.95231 -0.131742 -0.297218 -20.5826 -0.0220756 -0.324345 -0.569936 -0.0220798 -0.324354 102.176 -54.6356 -82.1537 26.8628 1.03125 -2.0354 -2.62886 -14.814 -15.8349 -13.9671 -0.891874 2.2872 -84.0776 -47.506 87.1256 -28.3547 14.2714 -15.1827 4.44694 23.9971 -10.0445 8.24054 -0.0833404 -4.29256 -0.573224 1.39006 -9.49581 -7.31274 2.25293 12.0073 
-129.185 97.4336 -18.4828 101.742 -88.0187 101.339 -175.671 1.1605 87.6571 -9.14589 21.9261 2.36879 59.8457 2.35603 13.8986 31.8482 -0.599131 -4.12066 175.933 4.24946 88.3213 -15.4006 0.616514 -0.960383 60.7566 4.1924 14.8357 29.9147 -0.0167094 -1.41152 -0.0347553 6.61874 -90.1245 13.6362 -0.129332 -0.232482 1.96525 -0.139446 -0.226568 -20.5698 -0.0534908 -0.260613 -0.557101 -0.0534821 -0.260601 102.102 -53.8671 -82.2627 27.6737 1.16497 -2.68777 -2.845 -17.2547 -14.5561 -12.5556 -0.83782 2.64589 -84.4698 -48.3075 86.614 -28.2833 13.5998 -14.973 4.31783 23.5358 -9.40654 8.17994 -0.12162 -4.72075 0.918725 1.48173 -8.55716 -8.94304 2.18535 11.3911 
-129.47 97.4629 -18.7442 114.427 -87.8435 114.118 -175.777 1.27333 87.8044 -10.0097 21.7726 2.61527 59.7388 2.33278 13.9849 32.4348 -0.806473 -4.09306 175.886 3.96909 88.5269 -15.5173 0.573123 -0.817101 60.7348 4.09819 14.673 29.6468 0.0260469 -1.423 -0.0528615 6.66936 -90.1138 13.535 -0.160001 -0.207437 1.86401 -0.168974 -0.200203 -20.671 -0.0902663 -0.245939 -0.658394 -0.0902611 -0.245938 101.675 -53.5188 -82.9011 28.294 0.774031 -2.67383 -2.68568 -16.8209 -14.3732 -11.8111 -0.767548 2.45617 -84.2841 -48.6575 86.9423 -28.0012 13.8627 -15.4469 3.80184 23.7572 -8.66269 6.28035 -0.197032 -5.78477 2.52714 1.75756 -6.88852 -10.2695 2.30324 9.17526 
-129.761 97.4854 -18.9053 132.459 -87.7575 132.155 -175.699 0.820436 87.9694 -10.1722 21.1346 2.69898 59.8523 2.34394 13.4421 32.2808 -0.77922 -3.76673 175.83 3.50437 88.6238 -15.6628 0.384426 -0.769548 61.0908 3.92481 14.811 28.9129 0.161246 -1.58212 -0.00295288 6.73146 -90.0987 13.4109 -0.0535504 -0.190739 1.73996 -0.0618905 -0.188202 -20.7951 0.00625261 -0.198008 -0.782444 0.00625065 -0.198019 101.59 -53.4637 -83.0278 28.4674 0.483054 -2.54424 -2.75166 -16.8127 -14.7846 -11.3228 -0.752755 2.63912 -84.4041 -48.5752 86.7472 -28.2509 13.5022 -15.9478 3.52938 25.2963 -7.55393 5.20067 -0.185923 -5.75733 2.84398 1.86765 -5.51637 -9.98819 2.31858 7.59114 
